<svg width="200" height="225" viewBox="0 0 200 225" fill="none" xmlns="http://www.w3.org/2000/svg">
<path fill-rule="evenodd" clip-rule="evenodd" d="M200 100.514C200 45.2851 155.228 0.51355 100 0.51355C44.7715 0.51355 0 45.2851 0 100.514C0 155.742 44.7715 200.514 100 200.514C155.228 200.514 200 155.742 200 100.514ZM133 100.514C133 82.2882 118.225 67.5135 100 67.5135C81.7746 67.5135 67 82.2882 67 100.514C67 118.739 81.7746 133.514 100 133.514C118.225 133.514 133 118.739 133 100.514Z" fill="#012F34"/>
<rect x="43" y="0.51355" width="43" height="43" transform="rotate(90 43 0.51355)" fill="#79C8C7"/>
<path fill-rule="evenodd" clip-rule="evenodd" d="M200 125C200 69.7715 155.228 25 100 25C44.7715 25 0 69.7715 0 125C0 180.228 44.7715 225 100 225C155.228 225 200 180.228 200 125ZM133 125C133 106.775 118.225 92 100 92C81.7746 92 67 106.775 67 125C67 143.225 81.7746 158 100 158C118.225 158 133 143.225 133 125Z" fill="#F67E7E"/>
</svg>
